<svg xmlns="http://www.w3.org/2000/svg" version="1.1" xmlns:xlink="http://www.w3.org/1999/xlink" width="512" height="512" x="0" y="0" viewBox="0 0 74 74" style="enable-background:new 0 0 512 512" xml:space="preserve"><g><path fill="#3b4346" d="M52.29 65.76H5.2s-1.15-15.04 2.25-19.7C10.1 42.42 24 38.93 24 38.93h9.51s13.9 3.49 16.55 7.13c3.38 4.66 2.23 19.7 2.23 19.7z" opacity="1" data-original="#3b4346"></path><path fill="#d8d8d8" d="m36.91 46.11-6.3 17.88-1.87 1.77-1.86-1.77-6.3-17.88 1.08-5.44 2.33-1.73h9.51l2.33 1.73z" opacity="1" data-original="#d8d8d8"></path><path fill="#f7bd89" d="M33.5 32.69v11.89l-4.76 1.55-4.76-1.55V32.69z" opacity="1" data-original="#f7bd89"></path><path fill="#282e30" d="M17.94 52.7c2.13 4.26 4.82 8.9 7.94 13.06h2.86V63.7c-3.72-8.37-5.98-16.66-4.76-24.77l-2.96.65c-.91.2-1.74.69-2.32 1.42-1.34 1.72-2.42 4-3.33 6.65l4.04.5z" opacity="1" data-original="#282e30"></path><path fill="#282e30" d="M28.74 65.76h2.86c3.12-4.16 5.82-8.8 7.94-13.06l-1.49-4.56 4.04-.5c-.9-2.64-1.98-4.92-3.32-6.64-.57-.74-1.41-1.22-2.32-1.42l-2.96-.65c1.23 8.11-1.03 16.41-4.76 24.77v2.06z" opacity="1" data-original="#282e30"></path><path fill="#ebebeb" d="m23.99 38.93-2.32.46c.38 3.89 1.58 8.45 3.99 10.82l3.09-4.09c-2.61-1.98-4.2-4.37-4.76-7.19z" opacity="1" data-original="#ebebeb"></path><path fill="#ebebeb" d="m33.5 38.93 2.32.46c-.38 3.89-1.58 8.45-3.99 10.82l-3.09-4.09c2.61-1.98 4.2-4.37 4.76-7.19z" opacity="1" data-original="#ebebeb"></path><g fill="#282e30"><path d="M44.5 65.76h-1.52l.76-8.04zM14.51 65.76h-1.52l.76-8.04z" fill="#282e30" opacity="1" data-original="#282e30"></path></g><path fill="#fff" d="M46.11 43.31v5.03c0 8.05-6.52 14.57-14.56 14.57H5.05c-.14-4.59-.08-13.47 2.39-16.85 1.98-2.71 10.19-5.34 14.25-6.5 1.23-.36 2.08-.57 2.27-.63l.03-.01c.56 2.82 2.15 5.21 4.76 7.2 1.3-.99 2.35-2.09 3.15-3.29.8-1.19 1.33-2.5 1.61-3.91a98.567 98.567 0 0 1 2.3.64c2.64.75 7.01 2.13 10.3 3.75z" opacity=".15"></path><path fill="#fff" d="M31.89 42.84c-.36 1.79-.96 3.51-1.78 5.08-3.26 6.34-9.87 10.69-17.5 10.69H5.02c.08-4.55.59-10.04 2.42-12.55 1.98-2.71 10.19-5.34 14.25-6.5 1.23-.36 2.08-.57 2.27-.63l.03-.01c.56 2.82 2.15 5.21 4.76 7.2 1.29-.99 2.34-2.08 3.14-3.28z" opacity=".15"></path><path fill="#fc9" d="M39.2 23.87c0 5.77-4.68 16.19-10.45 16.19-5.78 0-10.46-10.43-10.46-16.19 0-5.78 4.68-10.46 10.46-10.46 5.77 0 10.45 4.68 10.45 10.46z"></path><path fill="#3b4346" d="M19.39 29.42c-.16-3.99.05-7.6 1.68-9.79 5.5 2.05 10.56 1.28 15.18-2.26-.22 1.93 0 3.52.93 4.57.33.37.5.89.3 1.34-.69 1.55-.11 3.92.23 6.14h1.58c.88-6.74 2.26-14.2-.96-15.03-2.13-5.05-6.74-7.01-12.55-5.8-.28.06-.56.13-.84.21-4.96 1.41-8.1 6.31-7.76 11.46.2 2.95.62 5.81 1.26 8.59z"></path><g fill="#fc9"><path d="M40.12 29.07c-.84 1.49-2.15 2.34-2.94 1.89-.79-.44-.75-2 .08-3.49.83-1.48 2.15-2.34 2.93-1.9.8.45.75 2.02-.07 3.5zM17.37 29.07c.84 1.49 2.15 2.34 2.94 1.89.79-.44.75-2-.08-3.49-.83-1.48-2.15-2.34-2.93-1.9-.8.45-.75 2.02.07 3.5z"></path></g><path fill="#fff" d="M33.42 9.13c-2.14-.97-4.75-1.16-7.65-.55-.29.07-.57.13-.84.21-4.96 1.4-8.11 6.31-7.77 11.45.12 1.77.32 3.5.61 5.21-.18 0-.33.04-.48.12-.79.45-.76 2.02.08 3.49.69 1.26 1.74 2.06 2.52 2.01.8 2.01 1.87 3.97 3.13 5.55h1.1c5.13 0 9.3-4.16 9.3-9.3z" opacity=".2"></path><path fill="#dbd7d9" d="M52.96 62.85v1.86c0 .58-.47 1.05-1.05 1.05H27.97c-.58 0-1.05-.47-1.05-1.05v-1.86c0-.58.47-1.05 1.05-1.05h23.94c.58 0 1.05.47 1.05 1.05z"></path><path fill="#ebebeb" d="m68.96 47.41-4 17.53c-.11.48-.53.82-1.03.82H40.05c-.68 0-1.18-.63-1.03-1.29l4-17.53c.11-.48.53-.82 1.03-.82h23.89c.67.01 1.17.63 1.02 1.29z"></path><path fill="#dbd7d9" d="M56.04 55.94c-.15.95-1.06 1.73-2.02 1.73s-1.61-.79-1.45-1.73c.16-.96 1.06-1.73 2.02-1.73s1.61.77 1.45 1.73z"></path><path fill="#f15853" d="M68.99 23.47v13.29c0 .47-.38.84-.84.84H48.69c-.47 0-.84-.38-.84-.84V23.47c0-.47.38-.84.84-.84h19.46c.46 0 .84.38.84.84z"></path><path fill="#f15853" d="m56.23 37.3-2.41 3.99c-.16.27-.56.27-.72 0l-2.41-3.99z"></path><g fill="#fff"><path d="M56.54 31.74v.66c0 .24-.25.4-.47.31l-4.29-1.86a.331.331 0 0 1-.2-.31v-.75c0-.13.08-.25.2-.31l4.29-1.86c.22-.1.47.07.47.31v.66c0 .14-.09.26-.21.31l-3.24 1.25 3.24 1.28c.12.04.21.17.21.31zM59.6 27.38l-1.38 5.68c-.05.19-.09.34-.12.44-.03.11-.09.19-.16.25s-.17.09-.31.09c-.34 0-.5-.14-.5-.43 0-.08.03-.26.1-.57l1.38-5.68c.07-.3.14-.51.21-.62s.19-.17.38-.17c.16 0 .29.04.38.12s.13.19.13.33c0 .11-.04.29-.11.56zM65.06 30.84l-4.29 1.87c-.22.1-.47-.07-.47-.31v-.65c0-.14.08-.26.21-.31l3.25-1.28-3.25-1.26a.325.325 0 0 1-.21-.31v-.65c0-.24.25-.4.47-.31l4.29 1.85c.12.05.2.17.2.31v.74c0 .14-.08.26-.2.31z"></path></g></g></svg>