<svg xmlns="http://www.w3.org/2000/svg" version="1.1" xmlns:xlink="http://www.w3.org/1999/xlink" width="512" height="512" x="0" y="0" viewBox="0 0 511.992 511.992" style="enable-background:new 0 0 512 512" xml:space="preserve" class=""><g><path fill="#5766cb" d="M452.929 453.198H252.733c0-38.036 6.272-83.827 9.257-103.507.98-6.413 4.752-12.084 10.317-15.423 10.6-6.351 21.792-11.386 32.347-15.334 19.504-7.323 36.843-10.936 44.298-12.278a21.598 21.598 0 0 1 7.756 0c7.455 1.343 24.795 4.955 44.299 12.278 10.556 3.948 21.747 8.983 32.347 15.334 5.565 3.339 9.337 9.01 10.317 15.423 2.986 19.68 9.258 65.472 9.258 103.507z" opacity="1" data-original="#5766cb" class=""></path><path fill="#ecf4ff" d="M321.27 365.078s13.152 23.822 31.559 36.919c18.407-13.097 31.559-36.919 31.559-36.919v-39.935H321.27z" opacity="1" data-original="#ecf4ff"></path><path fill="#d57080" d="M370.29 385.298c-4.894 5.883-10.838 11.987-17.463 16.704-6.625-4.717-12.57-10.821-17.463-16.704l17.463-16.792zM321.27 338.163l31.561 30.342 31.561-30.342" opacity="1" data-original="#d57080"></path><path fill="#ecf4ff" d="M301.483 394.431s-9.354 33.478-9.354 58.767h-39.396c0-38.036 6.272-83.827 9.257-103.507.98-6.413 4.752-12.084 10.317-15.423 31.181 16.041 29.176 60.163 29.176 60.163zM452.928 453.198h-39.387c0-25.289-9.354-58.767-9.354-58.767s-2.005-44.122 29.167-60.163c5.565 3.339 9.337 9.01 10.317 15.423 2.986 19.68 9.257 65.472 9.257 103.507z" opacity="1" data-original="#ecf4ff"></path><path fill="#3d4fc3" d="M306.96 453.198h-14.84c0-25.289 9.354-58.767 9.354-58.767s.23 33.107 5.486 58.767z" opacity="1" data-original="#3d4fc3"></path><g fill="#ddeafb"><path d="M430.218 453.198h-16.677c0-25.289-9.354-58.767-9.354-58.767s25.422 13.197 26.031 58.767zM272.307 334.268c5.689-3.41 11.554-6.439 17.393-9.125-4.302 3.613-7.226 9.681-7.985 16.536-2.332 21.209-7.243 70.542-7.243 111.519h-21.739c0-38.036 6.272-83.827 9.257-103.507.981-6.413 4.752-12.084 10.317-15.423zM401.007 318.934l-16.615 46.145-31.561-30.342-31.561 30.342-16.615-46.145c19.504-7.323 36.843-10.936 44.298-12.278a21.598 21.598 0 0 1 7.756 0c7.455 1.342 24.794 4.955 44.298 12.278z" fill="#ddeafb" opacity="1" data-original="#ddeafb"></path></g><path fill="#9d6b6b" d="m470.678 187.33-172.996 2.456-70.578 1.004s-35.446-51.826-24.703-102.479c10.743-50.641 75.973-19.949 75.973-19.949s35.482-54.173 82.288-54.173c69.549 0 98.825 66.452 130.291 42.668.001 0 41.266 78.005-20.275 130.473z" opacity="1" data-original="#9d6b6b"></path><path fill="#8b5e5e" d="m297.682 189.786-70.578 1.004s-35.446-51.826-24.703-102.479c10.743-50.641 75.973-19.949 75.973-19.949s-22.368 37.394 18.171 67.239c13.077 9.617 10.561 30.425 1.137 54.185z" opacity="1" data-original="#8b5e5e"></path><path fill="#ffddce" d="M376.792 270.76v40.016c0 13.23-10.729 23.959-23.959 23.959-13.238 0-23.966-10.729-23.966-23.959V270.76z" opacity="1" data-original="#ffddce" class=""></path><path fill="#ffcbbe" d="M360.658 333.428a23.986 23.986 0 0 1-7.823 1.305c-13.238 0-23.966-10.729-23.966-23.959v-40.016h15.646v40.016c-.001 10.498 6.748 19.417 16.143 22.654zM252.73 237.44c-17.276 0-31.281-14.005-31.281-31.281 0-2.378.265-4.693.768-6.919 4.058-17.972 30.514-15.025 30.514 3.4h200.201c0-18.425 26.456-21.372 30.514-3.4.503 2.226.768 4.542.768 6.919 0 17.276-14.005 31.281-31.281 31.281" opacity="1" data-original="#ffcbbe" class=""></path><path fill="#ffcbbe" d="M328.867 270.76h47.925v36.865h-47.925z" opacity="1" data-original="#ffcbbe" class=""></path><path fill="#ffddce" d="M452.931 165.893v56.085c0 40.297-32.664 72.961-72.961 72.961h-54.282c-40.297 0-72.961-32.664-72.961-72.961v-56.085c25.853 0 46.818-20.953 46.818-46.806 0 0 .375.351 1.113.992 7.839 6.763 57.258 45.814 152.273 45.814z" opacity="1" data-original="#ffddce" class=""></path><path fill="#ffcbbe" d="M373.619 294.938h-47.931c-40.297 0-72.961-32.664-72.961-72.961v-56.085c25.853 0 46.818-20.953 46.818-46.806 0 0 .375.351 1.113.992v101.898c0 40.299 32.664 72.962 72.961 72.962z" opacity="1" data-original="#ffcbbe" class=""></path><g fill="#eaafa5"><ellipse cx="418.865" cy="220.099" rx="16.386" ry="9.964" fill="#eaafa5" opacity="1" data-original="#eaafa5"></ellipse><ellipse cx="286.796" cy="220.099" rx="16.386" ry="9.964" fill="#eaafa5" opacity="1" data-original="#eaafa5"></ellipse></g><path fill="#e4936b" d="M136.923 14.189c71.478 0 129.423 57.945 129.423 129.423v122.842c0 34.717-22.107 65.579-54.977 76.751l-74.446 25.302-74.446-25.302C29.607 332.034 7.5 301.171 7.5 266.454V143.611C7.501 72.133 65.445 14.189 136.923 14.189z" opacity="1" data-original="#e4936b" class=""></path><path fill="#e27d47" d="m105.384 343.205 31.539 25.3-74.44-25.3C29.613 332.036 7.5 301.167 7.5 266.457V143.612c0-71.478 57.944-129.423 129.423-129.423-30.28 0-54.829 57.944-54.829 129.423v122.846c0 34.709 9.369 65.578 23.29 76.747z" opacity="1" data-original="#e27d47" class=""></path><path fill="#5766cb" d="M237.027 453.198H36.831c0-38.036 6.272-83.827 9.257-103.507.98-6.413 4.752-12.084 10.317-15.423 10.6-6.351 21.792-11.386 32.347-15.334 19.504-7.323 36.843-10.936 44.299-12.278a21.598 21.598 0 0 1 7.756 0c7.455 1.343 24.795 4.955 44.299 12.278 10.556 3.948 21.747 8.983 32.347 15.334 5.565 3.339 9.337 9.01 10.317 15.423 2.985 19.68 9.257 65.472 9.257 103.507z" opacity="1" data-original="#5766cb" class=""></path><path fill="#ecf4ff" d="M105.368 365.078s13.152 23.822 31.559 36.919c18.407-13.097 31.559-36.919 31.559-36.919v-39.935h-63.119v39.935z" opacity="1" data-original="#ecf4ff"></path><path fill="#d57080" d="M154.388 385.298c-4.894 5.883-10.838 11.987-17.463 16.704-6.625-4.717-12.57-10.821-17.463-16.704l17.463-16.792zM105.368 338.163l31.561 30.342 31.561-30.342" opacity="1" data-original="#d57080"></path><path fill="#ecf4ff" d="M85.581 394.431s-9.354 33.478-9.354 58.767H36.831c0-38.036 6.272-83.827 9.257-103.507.98-6.413 4.752-12.084 10.317-15.423 31.181 16.041 29.176 60.163 29.176 60.163zM237.026 453.198h-39.387c0-25.289-9.354-58.767-9.354-58.767s-2.005-44.122 29.167-60.163c5.565 3.339 9.337 9.01 10.317 15.423 2.986 19.68 9.257 65.472 9.257 103.507z" opacity="1" data-original="#ecf4ff"></path><path fill="#3d4fc3" d="M91.058 453.198h-14.84c0-25.289 9.354-58.767 9.354-58.767s.23 33.107 5.486 58.767z" opacity="1" data-original="#3d4fc3"></path><g fill="#ddeafb"><path d="M214.316 453.198h-16.677c0-25.289-9.354-58.767-9.354-58.767s25.422 13.197 26.031 58.767zM56.405 334.268c5.689-3.41 11.554-6.439 17.393-9.125-4.302 3.613-7.226 9.681-7.985 16.536-2.332 21.209-7.243 70.542-7.243 111.519H36.831c0-38.036 6.272-83.827 9.257-103.507.981-6.413 4.752-12.084 10.317-15.423zM185.105 318.934l-16.615 46.145-31.561-30.342-31.561 30.342-16.615-46.145c19.504-7.323 36.843-10.936 44.299-12.278a21.598 21.598 0 0 1 7.756 0c7.454 1.342 24.793 4.955 44.297 12.278z" fill="#ddeafb" opacity="1" data-original="#ddeafb"></path></g><path fill="#ffddce" d="M160.89 270.759v40.016c0 13.23-10.729 23.959-23.959 23.959-13.238 0-23.966-10.729-23.966-23.959v-40.016z" opacity="1" data-original="#ffddce" class=""></path><path fill="#ffcbbe" d="M144.755 333.428a23.986 23.986 0 0 1-7.823 1.305c-13.238 0-23.966-10.729-23.966-23.959v-40.016h15.646v40.016c0 10.498 6.749 19.416 16.143 22.654z" opacity="1" data-original="#ffcbbe" class=""></path><path fill="#ffcbbe" d="M112.965 270.759h47.925v36.865h-47.925z" opacity="1" data-original="#ffcbbe" class=""></path><path fill="#ffddce" d="M237.024 167v54.984c0 40.29-32.662 72.959-72.958 72.959h-54.284c-40.29 0-72.958-32.662-72.958-72.959v-54.357c12.423-.361 29.518-2.48 47.932-6.222 37.737-7.671 81.055-22.171 101.207-42.323 0 0 19.935 40.736 51.061 47.918z" opacity="1" data-original="#ffddce" class=""></path><path fill="#ffcbbe" d="M157.714 294.942h-47.932c-40.29 0-72.958-32.662-72.958-72.959v-54.357c12.423-.361 29.518-2.48 47.932-6.222v60.579c-.001 40.29 32.661 72.959 72.958 72.959z" opacity="1" data-original="#ffcbbe" class=""></path><g fill="#eaafa5"><ellipse cx="195.893" cy="227.168" rx="16.386" ry="9.964" fill="#eaafa5" opacity="1" data-original="#eaafa5"></ellipse><ellipse cx="77.964" cy="227.168" rx="16.386" ry="9.964" fill="#eaafa5" opacity="1" data-original="#eaafa5"></ellipse></g><path fill="#8b5e5e" d="M38.703 452.788h422.353v45.016H38.703z" opacity="1" data-original="#8b5e5e"></path><path fill="#9d6b6b" d="M472.666 463.72H27.094c-6.101 0-11.046-4.946-11.046-11.046V438.63c0-6.101 4.946-11.046 11.046-11.046h445.571c6.101 0 11.046 4.946 11.046 11.046v14.044c.001 6.1-4.945 11.046-11.045 11.046z" opacity="1" data-original="#9d6b6b"></path><path d="M305.893 204.336c5.226 0 9.478-7.049 9.478-15.713s-4.252-15.713-9.478-15.713c-5.227 0-9.479 7.049-9.479 15.713s4.253 15.713 9.479 15.713zM399.769 204.336c5.226 0 9.478-7.049 9.478-15.713s-4.252-15.713-9.478-15.713c-5.227 0-9.479 7.049-9.479 15.713s4.252 15.713 9.479 15.713zM352.831 255.298c7.075 0 13.726-2.755 18.728-7.757a7.5 7.5 0 0 0-.001-10.607 7.5 7.5 0 0 0-10.606 0 11.407 11.407 0 0 1-8.12 3.363 11.41 11.41 0 0 1-8.121-3.364 7.5 7.5 0 1 0-10.605 10.607c5 5.003 11.65 7.758 18.725 7.758z" fill="#000000" opacity="1" data-original="#000000" class=""></path><path d="M457.137 244.708c19.413-2.104 34.577-18.586 34.577-38.549 0-2.89-.32-5.774-.953-8.571-1.128-4.999-3.631-9.177-7.044-12.245 21.4-22.236 30.937-50.937 27.638-83.68-2.742-27.205-13.328-47.465-13.777-48.314a7.5 7.5 0 0 0-11.153-2.474c-10.205 7.72-19.656 2.719-40.362-11.439a7.5 7.5 0 1 0-8.467 12.382c16.188 11.069 32.849 22.466 49.895 15.614 3.043 7.524 7.398 20.441 8.94 35.736 3.121 30.973-6.435 56.702-28.407 76.522a24.61 24.61 0 0 0-7.596 1.391v-15.187a7.5 7.5 0 0 0-7.5-7.5c-51.956 0-89.49-12.17-111.829-22.38-24.197-11.059-36.29-22.269-36.396-22.367a7.498 7.498 0 0 0-12.659 5.443c0 13.797-7.014 26.135-18.196 33.195v-8.671c0-28.057-8.488-54.167-23.024-75.906 13.139 2.256 24.217 7.369 24.364 7.438a7.498 7.498 0 0 0 9.466-2.678c.332-.508 33.748-50.78 76.006-50.78 17.889 0 34.542 4.605 52.408 14.492a7.501 7.501 0 0 0 7.263-13.125c-20.18-11.167-39.141-16.368-59.672-16.368-41.867 0-74.348 38.287-84.929 52.451-7.88-3.009-22.611-7.68-37.424-7.461-25.069-27.619-61.235-44.988-101.383-44.988C61.423 6.689 0 68.112 0 143.612v122.845c0 30.557 15.47 58.447 40.863 74.614a29.605 29.605 0 0 0-2.192 7.491c-2.238 14.753-6.104 42.728-8.087 71.521h-3.489c-10.227 0-18.546 8.32-18.546 18.546v14.044c0 10.227 8.32 18.546 18.546 18.546h4.113v26.586a7.5 7.5 0 0 0 7.5 7.5h51.2a7.5 7.5 0 0 0 0-15h-43.7V471.22h407.35v19.086h-334.33a7.5 7.5 0 0 0 0 15h341.83a7.5 7.5 0 0 0 7.5-7.5V471.22h4.108c10.227 0 18.547-8.32 18.547-18.546V438.63c0-10.227-8.32-18.546-18.547-18.546h-13.489c-1.982-28.789-5.848-56.767-8.089-71.535-1.331-8.67-6.387-16.219-13.877-20.716-9.927-5.946-21.224-11.302-33.569-15.917a268.647 268.647 0 0 0-19.348-6.408v-3.184c34.57-1.84 63.401-25.61 72.843-57.616zm3.294-42.069c0-6.765 5.886-7.763 7.065-7.895 1.18-.132 7.142-.454 8.633 6.148.388 1.715.584 3.487.584 5.266 0 10.61-6.986 19.617-16.599 22.67.192-2.26.312-4.54.312-6.849v-19.34zM305.25 133.065c19.501 13.589 65.391 38.659 140.176 40.247v48.666c0 36.096-29.361 65.462-65.452 65.462h-54.283c-20.274 0-39.479-9.493-51.845-25.502v-92.824c15.706-6.579 27.172-19.914 31.404-36.049zm91.444 261.707a7.43 7.43 0 0 0 .269 1.675c.035.124 2.887 10.415 5.378 23.636h-99.016c2.491-13.221 5.344-23.512 5.378-23.636a7.544 7.544 0 0 0 .269-1.675c.022-.497.512-12.324-3.127-26.297-3.667-14.081-10.264-25.43-19.323-33.469a197.45 197.45 0 0 1 13.697-6.256l13.995 38.869c.136.377.309.732.499 1.076l-.013.007c.234.424 5.838 10.512 14.898 21.391 6.193 7.446 12.545 13.508 18.879 18.017 1.302.927 2.825 1.39 4.35 1.39s3.048-.463 4.35-1.39c6.334-4.509 12.686-10.571 18.876-18.014 9.063-10.883 14.668-20.97 14.901-21.394l-.006-.004c.191-.346.365-.702.502-1.08l13.996-38.87a197.779 197.779 0 0 1 13.699 6.258c-9.059 8.039-15.655 19.387-19.323 33.468-3.64 13.974-3.151 25.801-3.128 26.298zM89.938 368.475c-3.667-14.08-10.263-25.428-19.322-33.467a197.779 197.779 0 0 1 13.699-6.258l13.996 38.87c.136.377.309.732.499 1.077l-.012.007c.234.424 5.838 10.512 14.897 21.391 6.193 7.445 12.545 13.507 18.879 18.017 1.302.927 2.826 1.39 4.35 1.39s3.048-.463 4.35-1.39c6.334-4.51 12.686-10.572 18.876-18.014 9.062-10.883 14.667-20.97 14.9-21.394l-.007-.004c.191-.346.365-.702.501-1.08l13.995-38.869a197.224 197.224 0 0 1 13.698 6.256c-9.059 8.039-15.656 19.388-19.323 33.469-3.639 13.973-3.15 25.8-3.127 26.297.026.566.116 1.129.269 1.675.034.124 2.887 10.415 5.378 23.636H87.419c2.491-13.221 5.344-23.512 5.378-23.636a7.544 7.544 0 0 0 .269-1.675c.022-.498.512-12.325-3.128-26.298zm17.136-47.793c2.562 7.699 8.018 14.085 15.077 17.858l-13.645 13.117-10.146-28.18c2.88-.983 5.788-1.913 8.714-2.795zm13.392-18.24h32.925v8.332c0 9.077-7.385 16.462-16.462 16.462s-16.462-7.385-16.462-16.462v-8.332zm16.459 55.66-6.74-6.479 6.744-6.483 6.74 6.48zm-17.562 3.925 6.74 6.479-5.85 5.625a147.474 147.474 0 0 1-5.362-7.805zm17.562 16.883 7.084 6.811c-2.367 2.516-4.733 4.782-7.084 6.775-2.35-1.993-4.716-4.258-7.084-6.775zm16.671-4.779-5.85-5.625 6.744-6.483 4.471 4.298a146.831 146.831 0 0 1-5.365 7.81zm-1.889-35.592c7.06-3.773 12.515-10.159 15.077-17.858 2.93.883 5.838 1.813 8.714 2.795l-10.146 28.18zm12.359-51.097h-54.285c-36.094 0-65.458-29.365-65.458-65.458v-47.226c20.715-1.446 48.07-6.472 72.096-13.356 21.201-6.074 48.876-16.078 67.536-30.602 7.458 12.147 23.372 33.907 45.569 41.805v49.38c0 36.092-29.364 65.457-65.458 65.457zm37.622 132.641c-2.315-12.958-5.081-23.588-5.929-26.739-.024-2.592.115-11.474 2.771-21.462 3.457-12.999 9.598-22.564 18.281-28.513a14.328 14.328 0 0 1 3.543 7.442c2.175 14.339 5.915 41.369 7.889 69.272zm41.592 0c-1.992-28.803-5.859-56.775-8.098-71.536a29.59 29.59 0 0 0-2.191-7.482c20.927-13.33 35.109-34.62 39.447-58.801 13.503 11.901 30.749 19.069 48.931 20.054v3.189a266.97 266.97 0 0 0-19.339 6.405c-12.379 4.627-23.677 9.984-33.581 15.923-7.483 4.493-12.54 12.042-13.873 20.726-2.237 14.748-6.104 42.719-8.095 71.521h-3.201zm109.547-61.981-6.74-6.479 6.744-6.484 6.74 6.48zm-17.562 3.926 6.74 6.479-5.85 5.625a147.474 147.474 0 0 1-5.362-7.805zm17.562 16.882 7.083 6.811c-2.368 2.516-4.733 4.782-7.083 6.775-2.35-1.993-4.715-4.258-7.083-6.775zm16.671-4.778-5.85-5.625 6.744-6.483 4.471 4.299a147.678 147.678 0 0 1-5.365 7.809zm-45.089-22.475-10.147-28.18a255.74 255.74 0 0 1 8.714-2.795c2.562 7.699 8.017 14.085 15.077 17.858zm-55.005-.832c.435-2.83 1.688-5.4 3.545-7.456 8.682 5.949 14.825 15.514 18.281 28.513 2.658 9.997 2.795 18.887 2.771 21.461-.848 3.149-3.615 13.78-5.93 26.74h-26.555c1.975-27.903 5.715-54.932 7.888-69.258zm111.849.832-13.645-13.117c7.06-3.773 12.516-10.159 15.077-17.858 2.925.882 5.833 1.812 8.714 2.795zm-11.96-40.883c0 9.076-7.382 16.459-16.458 16.462h-.01c-9.075-.003-16.457-7.386-16.457-16.462v-8.333h32.925zM15 266.457V143.612C15 76.383 69.694 21.689 136.923 21.689s121.923 54.694 121.923 121.923v122.845c0 25.934-13.414 49.568-35.333 62.852a29.48 29.48 0 0 0-2.205-1.475c-9.901-5.937-21.199-11.294-33.569-15.918a266.887 266.887 0 0 0-19.348-6.408v-3.185c42.361-2.255 76.133-37.425 76.133-80.339V167a7.5 7.5 0 0 0-5.814-7.308c-27.22-6.28-45.83-43.538-46.011-43.906a7.5 7.5 0 0 0-12.04-2.006c-28.534 28.534-108.947 45.343-144.052 46.352a7.5 7.5 0 0 0-7.285 7.497v54.356c0 42.917 33.778 78.09 76.144 80.34v3.183a268.65 268.65 0 0 0-19.342 6.406c-12.354 4.618-23.649 9.974-33.582 15.923-.763.458-1.494.956-2.205 1.476C28.415 316.032 15 292.398 15 266.457zm38.499 84.368a14.367 14.367 0 0 1 3.544-7.456c8.683 5.949 14.824 15.514 18.281 28.513 2.659 9.997 2.796 18.887 2.772 21.461-.848 3.149-3.614 13.78-5.93 26.74H45.619c1.966-27.893 5.706-54.927 7.88-69.258zm422.713 87.804v14.044a3.55 3.55 0 0 1-3.547 3.546H27.094a3.55 3.55 0 0 1-3.546-3.546v-14.044a3.55 3.55 0 0 1 3.546-3.546h445.571a3.55 3.55 0 0 1 3.547 3.546zm-32.071-18.546h-26.548c-2.315-12.958-5.081-23.588-5.93-26.739-.023-2.592.115-11.474 2.771-21.462 3.458-13 9.599-22.565 18.282-28.513a14.334 14.334 0 0 1 3.542 7.442c2.177 14.346 5.917 41.383 7.883 69.272z" fill="#000000" opacity="1" data-original="#000000" class=""></path><path d="M91.566 180.886c-.329 0-11.345.083-11.812.087-3.12 0-5.657 2.538-5.657 5.657s2.538 5.657 5.657 5.657h2.591a25.68 25.68 0 0 0-.382 4.437c0 8.733 4.308 15.838 9.603 15.838s9.603-7.105 9.603-15.838c-.001-8.733-4.308-15.838-9.603-15.838zM194.093 180.973c-.519-.004-12.205-.087-12.533-.087-5.295 0-9.603 7.105-9.603 15.838s4.308 15.838 9.603 15.838 9.603-7.105 9.603-15.838c0-1.506-.128-2.996-.382-4.437h3.312a5.664 5.664 0 0 0 5.658-5.657 5.665 5.665 0 0 0-5.658-5.657zM144.381 237.348c-4.111 4.112-10.802 4.113-14.916 0a7.5 7.5 0 0 0-10.606 10.607c4.98 4.98 11.522 7.47 18.064 7.47s13.084-2.49 18.064-7.47a7.5 7.5 0 0 0-10.606-10.607z" fill="#000000" opacity="1" data-original="#000000" class=""></path></g></svg>